<?xml version="1.0" encoding="UTF-8" standalone="no"?>
<svg
   xmlns:dc="http://purl.org/dc/elements/1.1/"
   xmlns:cc="http://creativecommons.org/ns#"
   xmlns:rdf="http://www.w3.org/1999/02/22-rdf-syntax-ns#"
   xmlns:svg="http://www.w3.org/2000/svg"
   xmlns="http://www.w3.org/2000/svg"
   xmlns:sodipodi="http://sodipodi.sourceforge.net/DTD/sodipodi-0.dtd"
   xmlns:inkscape="http://www.inkscape.org/namespaces/inkscape"
   viewBox="0 0 1024 768"
   id="svg2"
   version="1.1"
   inkscape:version="0.91 r13725"
   sodipodi:docname="category-board.svg">
  <metadata
     id="metadata252">
    <rdf:RDF>
      <cc:Work
         rdf:about="">
        <dc:format>image/svg+xml</dc:format>
        <dc:type
           rdf:resource="http://purl.org/dc/dcmitype/StillImage" />
      </cc:Work>
    </rdf:RDF>
  </metadata>
  <defs
     id="defs250" />
  <sodipodi:namedview
     pagecolor="#ffffff"
     bordercolor="#666666"
     borderopacity="1"
     objecttolerance="10"
     gridtolerance="10"
     guidetolerance="10"
     inkscape:pageopacity="0"
     inkscape:pageshadow="2"
     inkscape:window-width="897"
     inkscape:window-height="599"
     id="namedview248"
     showgrid="false"
     inkscape:snap-object-midpoints="true"
     inkscape:snap-midpoints="true"
     inkscape:zoom="0.60546875"
     inkscape:cx="768.49548"
     inkscape:cy="383.55373"
     inkscape:window-x="0"
     inkscape:window-y="0"
     inkscape:window-maximized="0"
     inkscape:current-layer="svg2" />
  <g
     id="objects"
     sodipodi:docname="drawing.svg"
     inkscape:version="0.48.4 r9939">
    <g
       id="imac"
       data-1080="    transform: scale(1, 1);    opacity: 1; "
       data-gridbg="  #scene2 1050  {    transform: scale(1, 0);    opacity: 0; "
       style="-webkit-transform: scale(1, 1); transform: scale(1, 1); opacity: 1;"
       class="skrollable skrollable-after"
       transform="scale(1, 1)">
      <rect
         id="gridbg"
         x="392.694"
         y="187.642"
         width="299.489"
         height="165.827"
         data-1050="    transform: scale(1, 0);    opacity: 0; "
         data-1080="    transform: scale(1, 1);    opacity: 1; "
         style="-webkit-transform: scale(1, 1); transform: scale(1, 1); opacity: 1;"
         class="skrollable skrollable-after"
         fill="#F5B8B6"
         transform="scale(1, 1)" />
      <g
         id="grid"
         fill="#fff">
        <rect
           id="grid1"
           x="411.767"
           y="187.562"
           width="6.386"
           height="166"
           data-940="    transform: scale(1, 0); "
           data-960="    transform: scale(1, 1); "
           class="skrollable skrollable-after"
           style="-webkit-transform: scale(1, 1); transform: scale(1, 1);"
           transform="scale(1, 1)" />
        <rect
           id="grid2"
           x="437.767"
           y="187.562"
           width="6.386"
           height="166"
           data-950="    transform: scale(1, 0); "
           data-970="    transform: scale(1, 1); "
           class="skrollable skrollable-after"
           style="-webkit-transform: scale(1, 1); transform: scale(1, 1);"
           transform="scale(1, 1)" />
        <rect
           id="grid3"
           x="462.767"
           y="187.562"
           width="6.386"
           height="166"
           data-960="    transform: scale(1, 0); "
           data-980="    transform: scale(1, 1); "
           class="skrollable skrollable-after"
           style="-webkit-transform: scale(1, 1); transform: scale(1, 1);"
           transform="scale(1, 1)" />
        <rect
           id="grid4"
           x="488.767"
           y="187.562"
           width="6.386"
           height="166"
           data-970="    transform: scale(1, 0); "
           data-990="    transform: scale(1, 1); "
           class="skrollable skrollable-after"
           style="-webkit-transform: scale(1, 1); transform: scale(1, 1);"
           transform="scale(1, 1)" />
        <rect
           id="grid5"
           x="513.767"
           y="187.562"
           width="6.386"
           height="166"
           data-980="    transform: scale(1, 0); "
           data-1000="    transform: scale(1, 1); "
           class="skrollable skrollable-after"
           style="-webkit-transform: scale(1, 1); transform: scale(1, 1);"
           transform="scale(1, 1)" />
        <rect
           id="grid6"
           x="539.767"
           y="187.562"
           width="6.386"
           height="166"
           data-990="    transform: scale(1, 0); "
           data-1010="    transform: scale(1, 1); "
           class="skrollable skrollable-after"
           style="-webkit-transform: scale(1, 1); transform: scale(1, 1);"
           transform="scale(1, 1)" />
        <rect
           id="grid7"
           x="564.767"
           y="187.562"
           width="6.386"
           height="166"
           data-1000="    transform: scale(1, 0); "
           data-1020="    transform: scale(1, 1); "
           class="skrollable skrollable-after"
           style="-webkit-transform: scale(1, 1); transform: scale(1, 1);"
           transform="scale(1, 1)" />
        <rect
           id="grid8"
           x="590.767"
           y="187.562"
           width="6.386"
           height="166"
           data-1010="    transform: scale(1, 0); "
           data-1030="    transform: scale(1, 1); "
           class="skrollable skrollable-after"
           style="-webkit-transform: scale(1, 1); transform: scale(1, 1);"
           transform="scale(1, 1)" />
        <rect
           id="grid9"
           x="615.767"
           y="187.562"
           width="6.386"
           height="166"
           data-1020="    transform: scale(1, 0); "
           data-1040="    transform: scale(1, 1); "
           class="skrollable skrollable-after"
           style="-webkit-transform: scale(1, 1); transform: scale(1, 1);"
           transform="scale(1, 1)" />
        <rect
           id="grid10"
           x="641.767"
           y="187.562"
           width="6.386"
           height="166"
           data-1030="    transform: scale(1, 0); "
           data-1050="    transform: scale(1, 1); "
           class="skrollable skrollable-after"
           style="-webkit-transform: scale(1, 1); transform: scale(1, 1);"
           transform="scale(1, 1)" />
        <rect
           id="grid11"
           x="666.767"
           y="187.562"
           width="6.386"
           height="166"
           data-1040="    transform: scale(1, 0); "
           data-1060="    transform: scale(1, 1); "
           class="skrollable skrollable-after"
           style="-webkit-transform: scale(1, 1); transform: scale(1, 1);"
           transform="scale(1, 1)" />
      </g>
      <path
         id="bg1"
         d="M692.158 187.642c.01.008.02.015.024 12.771v153.056h-300v-153.056c.01-12.754.021-12.763.026-12.771h299.95z"
         data-1180="    opacity: 0; "
         data-1200="    opacity: 1; "
         style="opacity: 1;"
         class="skrollable skrollable-after"
         fill="#F5F7FA" />
      <rect
         id="bg2"
         x="392.186"
         y="264.172"
         width="300"
         height="76.551"
         data-1150="    display: none; "
         data-1170="    display: inline; "
         style="display: inline;"
         class="skrollable skrollable-after"
         fill="#E6E9ED" />
      <g
         id="b4"
         data-1080="    display: none; "
         data-1100="    display: inline; "
         style="display: inline;"
         class="skrollable skrollable-after"
         fill="#434A54">
        <rect
           id="f22"
           x="616.326"
           y="326.372"
           width="28.574"
           height="3.188" />
        <rect
           id="f21"
           x="616.326"
           y="313.616"
           width="57.145"
           height="3.187" />
        <rect
           id="f20"
           x="616.326"
           y="319.992"
           width="57.145"
           height="3.188" />
        <rect
           id="f19"
           x="616.326"
           y="307.236"
           width="57.145"
           height="3.188" />
      </g>
      <rect
         id="f18"
         x="616.326"
         y="275.346"
         width="57.145"
         height="25.513"
         data-1070="    display: none; "
         data-1090="    display: inline; "
         style="display: inline;"
         class="skrollable skrollable-after"
         fill="#3498DB" />
      <g
         id="b3"
         data-1100="    display: none; "
         data-1120="    display: inline; "
         style="display: inline;"
         class="skrollable skrollable-after"
         fill="#434A54">
        <rect
           id="f17"
           x="513.613"
           y="307.236"
           width="57.143"
           height="3.188" />
        <rect
           id="f16"
           x="513.613"
           y="319.992"
           width="57.143"
           height="3.188" />
        <rect
           id="f15"
           x="513.613"
           y="313.616"
           width="57.143"
           height="3.187" />
        <rect
           id="f14"
           x="513.613"
           y="326.372"
           width="28.569"
           height="3.188" />
      </g>
      <rect
         id="f13"
         x="513.613"
         y="275.346"
         width="57.143"
         height="25.513"
         data-1090="    display: none; "
         data-1110="    display: inline; "
         style="display: inline;"
         class="skrollable skrollable-after"
         fill="#3498DB" />
      <g
         id="b2"
         data-1120="    display: none; "
         data-1140="    display: inline; "
         style="display: inline;"
         class="skrollable skrollable-after"
         fill="#434A54">
        <rect
           id="f12"
           x="411.901"
           y="307.236"
           width="57.14"
           height="3.188" />
        <rect
           id="f11"
           x="411.901"
           y="319.992"
           width="57.14"
           height="3.188" />
        <rect
           id="f10"
           x="411.901"
           y="313.616"
           width="57.14"
           height="3.187" />
        <rect
           id="f9"
           x="411.901"
           y="326.372"
           width="28.566"
           height="3.188" />
      </g>
      <rect
         id="f8"
         x="411.901"
         y="275.346"
         width="57.14"
         height="25.513"
         data-1110="    display: none; "
         data-1130="    display: inline; "
         style="display: inline;"
         class="skrollable skrollable-after"
         fill="#3498DB" />
      <g
         id="b1"
         data-1130="    display: none; "
         data-1150="    display: inline; "
         style="display: inline;"
         class="skrollable skrollable-after">
        <rect
           id="f6"
           x="527.758"
           y="202.791"
           width="110.716"
           height="6.379"
           fill="#E74C3C" />
        <rect
           id="f5"
           x="527.758"
           y="241.062"
           width="39.279"
           height="12.756"
           fill="#39B54A" />
        <rect
           id="f4"
           x="527.758"
           y="213.955"
           width="110.716"
           height="3.188"
           fill="#656D78" />
        <rect
           id="f3"
           x="527.758"
           y="226.711"
           width="110.716"
           height="3.188"
           fill="#656D78" />
        <rect
           id="f2"
           x="527.758"
           y="220.333"
           width="110.716"
           height="3.188"
           fill="#656D78" />
        <rect
           id="f7"
           x="527.758"
           y="233.089"
           width="82.146"
           height="3.189"
           fill="#656D78" />
      </g>
      <rect
         id="f1"
         x="411.901"
         y="202.791"
         width="110.713"
         height="51.027"
         data-1140="    display: none; "
         data-1160="    display: inline; "
         style="display: inline;"
         class="skrollable skrollable-after"
         fill="#3498DB" />
    </g>
    <g
       id="diagramma1"
       data-1320="    transform[swing]: translate(0, 610px); "
       data-1370="    transform[swing]: translate(0, 0); "
       class="skrollable skrollable-after"
       style="-webkit-transform: translate(0px, 0px); transform: translate(0px, 0px);"
       transform="translate(0, 0)">
      <polygon
         points="240.597,366.983 212.917,333.78 65.026,322.904 47.003,567.986 224.852,581.065"
         id="polygon50"
         fill="#39B54A" />
      <polygon
         points="216.906,330.22 69.014,319.344 50.992,564.424 228.841,577.503 244.585,363.422"
         id="polygon52"
         fill="#F5F7FA" />
      <polygon
         points="214.625,361.22 244.585,363.423 216.906,330.22"
         id="polygon54"
         fill="#8996A9" />
      <g
         id="dg1"
         data-1390="    opacity: 0; "
         data-1410="    opacity: 1; "
         style="opacity: 1;"
         class="skrollable skrollable-after">
        <ellipse
           id="d1"
           transform="matrix(-.997 -.073 .073 -.997 285.853 723.049)"
           cx="156.194"
           cy="356.28"
           rx="14.859"
           ry="15.379"
           fill="#3498DB" />
        <rect
           id="d2"
           x="146.444"
           y="354.475"
           transform="matrix(.997 .073 -.073 .997 26.541 -10.456)"
           width="18.573"
           height="3.843"
           fill="#F5F7FA" />
        <rect
           id="d3"
           x="152.864"
           y="364.888"
           transform="matrix(.997 .073 -.073 .997 27.911 -10.307)"
           width="3.713"
           height="22.256"
           fill="#E6E9ED" />
      </g>
      <g
         id="dg2"
         data-1400="    opacity: 0; "
         data-1420="    opacity: 1; "
         style="opacity: 1;"
         class="skrollable skrollable-after">
        <polygon
           id="d4"
           points="191.69,405.157 187.985,404.886 188.96,391.616 118.561,386.438 117.856,396.023 114.151,395.753 115.137,382.332 192.949,388.055"
           fill="#E6E9ED" />
        <polygon
           id="d5"
           points="85.516,405.212 116.287,392.057 144.801,409.57 114.031,422.728"
           fill="#E74C3C" />
        <rect
           id="d6"
           x="100.307"
           y="405.466"
           transform="matrix(.997 .073 -.073 .997 30.215 -7.355)"
           width="29.721"
           height="3.843"
           fill="#F5F7FA" />
        <rect
           id="d7"
           x="112.09"
           y="414.874"
           transform="matrix(.997 .074 -.074 .997 31.516 -7.237)"
           width="3.715"
           height="18.259"
           fill="#E6E9ED" />
      </g>
      <g
         id="dg3"
         data-1410="    opacity: 0; "
         data-1430="    opacity: 1; "
         style="opacity: 1;"
         class="skrollable skrollable-after">
        <rect
           id="d8"
           x="82.611"
           y="430.205"
           transform="matrix(.997 .073 -.073 .997 33.01 -7.043)"
           width="59.444"
           height="30.755"
           fill="#3498DB" />
        <rect
           id="d9"
           x="94.115"
           y="439.009"
           transform="matrix(.997 .073 -.073 .997 32.612 -6.26)"
           width="14.86"
           height="3.837"
           fill="#F5F7FA" />
        <rect
           id="d10"
           x="116.348"
           y="440.362"
           transform="matrix(.997 .073 -.073 .997 32.81 -7.624)"
           width="7.432"
           height="3.843"
           fill="#F5F7FA" />
        <rect
           id="d11"
           x="93.468"
           y="447.501"
           transform="matrix(.997 .073 -.073 .997 33.24 -7.003)"
           width="37.149"
           height="3.839"
           fill="#F5F7FA" />
        <rect
           id="d12"
           x="109.064"
           y="449.378"
           transform="matrix(.997 .073 -.073 .997 34.312 -6.861)"
           width="3.715"
           height="32.195"
           fill="#E6E9ED" />
      </g>
      <g
         id="dg4"
         data-1420="    opacity: 0; "
         data-1440="    opacity: 1; "
         style="opacity: 1;"
         class="skrollable skrollable-after">
        <rect
           id="d13"
           x="78.647"
           y="476.351"
           transform="matrix(.997 .073 -.073 .997 36.949 -6.607)"
           width="59.446"
           height="46.124"
           fill="#3498DB" />
        <rect
           id="d14"
           x="85.364"
           y="501.292"
           transform="matrix(.997 .073 -.073 .997 37.176 -6.537)"
           width="44.577"
           height="3.841"
           fill="#F5F7FA" />
        <rect
           id="d15"
           x="84.771"
           y="507.879"
           transform="matrix(.997 .073 -.073 .997 37.64 -5.389)"
           width="14.859"
           height="3.836"
           fill="#F5F7FA" />
        <rect
           id="d16"
           x="107.075"
           y="509.236"
           transform="matrix(.997 .073 -.073 .997 37.776 -6.747)"
           width="7.432"
           height="3.839"
           fill="#F5F7FA" />
        <rect
           id="d17"
           x="85.938"
           y="492.808"
           transform="matrix(.997 .073 -.073 .997 36.527 -5.786)"
           width="22.288"
           height="3.838"
           fill="#F5F7FA" />
        <rect
           id="d18"
           x="115.644"
           y="494.709"
           transform="matrix(.997 .073 -.073 .997 36.722 -7.683)"
           width="14.86"
           height="3.843"
           fill="#F5F7FA" />
        <rect
           id="d19"
           x="86.494"
           y="485.684"
           transform="matrix(.997 .073 -.073 .997 36.072 -6.396)"
           width="37.149"
           height="3.838"
           fill="#F5F7FA" />
      </g>
      <g
         id="dg5"
         data-1430="    opacity: 0; "
         data-1450="    opacity: 1; "
         style="opacity: 1;"
         class="skrollable skrollable-after">
        <polygon
           id="d20"
           points="159.621,410.661 190.392,397.503 218.906,415.021 188.136,428.177"
           fill="#44C650" />
        <rect
           id="d21"
           x="174.448"
           y="410.907"
           transform="matrix(.997 .073 -.073 .997 30.772 -12.767)"
           width="29.721"
           height="3.844"
           fill="#F5F7FA" />
        <rect
           id="d22"
           x="172.153"
           y="435.676"
           transform="matrix(.997 .073 -.073 .997 33.005 -12.516)"
           width="29.721"
           height="15.377"
           fill="#3498DB" />
      </g>
      <g
         id="dg6"
         data-1440="    opacity: 0; "
         data-1460="    opacity: 1; "
         style="opacity: 1;"
         class="skrollable skrollable-after">
        <rect
           id="d23"
           x="186.198"
           y="420.336"
           transform="matrix(.997 .073 -.073 .997 31.887 -12.594)"
           width="3.715"
           height="18.258"
           fill="#E6E9ED" />
        <rect
           id="d24"
           x="180.052"
           y="441.478"
           transform="matrix(.997 .073 -.073 .997 32.995 -12.546)"
           width="14.86"
           height="3.844"
           fill="#F5F7FA" />
        <rect
           id="d25"
           x="183.698"
           y="438.505"
           transform="matrix(.997 .073 -.073 .997 34.408 -12.319)"
           width="3.715"
           height="51.085"
           fill="#E6E9ED" />
      </g>
      <g
         id="dg7"
         data-1450="    opacity: 0; "
         data-1470="    opacity: 1; "
         style="opacity: 1;"
         class="skrollable skrollable-after">
        <rect
           id="d26"
           x="155.568"
           y="458.837"
           transform="matrix(-.997 -.073 .073 -.997 335.88 945.374)"
           width="59.441"
           height="15.372"
           fill="#3498DB" />
        <rect
           id="d27"
           x="185.765"
           y="465.447"
           transform="matrix(.997 .073 -.073 .997 34.79 -13.177)"
           width="22.288"
           height="3.837"
           fill="#F5F7FA" />
        <rect
           id="d28"
           x="163.52"
           y="463.541"
           transform="matrix(.997 .073 -.073 .997 34.565 -11.275)"
           width="14.861"
           height="3.841"
           fill="#F5F7FA" />
      </g>
      <g
         id="dg8"
         data-1460="    opacity: 0; "
         data-1480="    opacity: 1; "
         style="opacity: 1;"
         class="skrollable skrollable-after">
        <rect
           id="d29"
           x="161.361"
           y="481.833"
           transform="matrix(.997 .073 -.073 .997 36.377 -12.145)"
           width="44.576"
           height="15.371"
           fill="#3498DB" />
        <rect
           id="d30"
           x="180.516"
           y="497.013"
           transform="matrix(.997 .073 -.073 .997 37.632 -12.005)"
           width="3.717"
           height="19.369"
           fill="#E6E9ED" />
        <rect
           id="d32"
           x="172.507"
           y="487.595"
           transform="matrix(.997 .073 -.073 .997 36.377 -12.145)"
           width="22.288"
           height="3.843"
           fill="#F5F7FA" />
      </g>
      <g
         id="dg9"
         data-1470="    opacity: 0; "
         data-1490="    opacity: 1; "
         style="opacity: 1;"
         class="skrollable skrollable-after">
        <ellipse
           id="d31"
           transform="matrix(-.997 -.073 .073 -.997 322.449 1067.551)"
           cx="180.813"
           cy="527.859"
           rx="14.862"
           ry="15.377"
           fill="#3498DB" />
        <rect
           id="d33"
           x="171.066"
           y="526.056"
           transform="matrix(.997 .073 -.073 .997 39.18 -11.798)"
           width="18.575"
           height="3.844"
           fill="#fff" />
      </g>
    </g>
    <g
       id="appunti"
       data-1275="    transform[swing]: translate(0, 510px); "
       data-1325="    transform[swing]: translate(0, 0); "
       class="skrollable skrollable-after"
       style="-webkit-transform: translate(0px, 0px); transform: translate(0px, 0px);"
       transform="translate(0, 0)">
      <rect
         x="748.774"
         y="517.238"
         transform="matrix(-.101 .995 -.995 -.101 1574.825 -132.19)"
         width="196.714"
         height="256.243"
         id="rect99"
         fill="#39B54A" />
      <rect
         x="753.772"
         y="513.236"
         transform="matrix(-.101 .995 -.995 -.101 1576.346 -141.569)"
         width="196.714"
         height="256.243"
         id="rect101"
         fill="#E6E9ED" />
      <rect
         x="760.162"
         y="513.292"
         transform="matrix(.035 .999 -.999 .035 1469.792 -238.79)"
         width="196.668"
         height="256.185"
         id="rect103"
         fill="#F5F7FA" />
      <g
         id="ag1"
         data-1325="    opacity: 0; "
         data-1345="    opacity: 1; "
         style="opacity: 1;"
         class="skrollable skrollable-after"
         fill="#44C650">
        <path
           id="a1"
           d="M943.17 670.787l-108.669 4.229-3.555-91.109 108.671-4.229 3.553 91.109zm-104.502-.273l99.992-3.896-3.215-82.438-99.99 3.896 3.213 82.438z" />
        <rect
           id="a2"
           x="833.853"
           y="599.179"
           transform="matrix(.999 -.039 .039 .999 -22.72 34.92)"
           width="104.366"
           height="4.336" />
      </g>
      <g
         id="ag2"
         data-1345="    opacity: 0; "
         data-1365="    opacity: 1; "
         style="opacity: 1;"
         class="skrollable skrollable-after"
         fill="#44C650">
        <path
           id="a3"
           d="M873.412 664.814l-21.688.849-.853-21.693 21.693-.846.848 21.69zm-17.526-3.662l13.021-.513-.508-13.018-13.021.506.508 13.025z" />
        <path
           id="a4"
           d="M899.344 663.803l-21.691.851-.849-21.69 21.688-.849.852 21.688zm-17.524-3.662l13.021-.508-.514-13.021-13.021.511.514 13.018z" />
        <path
           id="a5"
           d="M925.391 662.789l-21.69.846-.849-21.692 21.693-.847.846 21.693zm-17.524-3.662l13.021-.508-.51-13.021-13.021.506.51 13.023z" />
      </g>
      <g
         id="ag3"
         data-1355="    opacity: 0; "
         data-1375="    opacity: 1; "
         style="opacity: 1;"
         class="skrollable skrollable-after"
         fill="#44C650">
        <path
           id="a6"
           d="M889.752 638.105l-39.052 1.521-1.187-30.368 39.051-1.521 1.188 30.368zm-34.879-2.986l30.372-1.188-.846-21.688-30.372 1.186.846 21.69z" />
        <rect
           id="a7"
           x="895.074"
           y="606.95"
           transform="matrix(.999 -.039 .039 .999 -23.05 35.855)"
           width="26.059"
           height="4.336" />
        <rect
           id="a8"
           x="895.356"
           y="615.709"
           transform="matrix(.999 -.039 .039 .999 -23.339 35.791)"
           width="26.144"
           height="4.336" />
        <rect
           id="a9"
           x="895.775"
           y="624.464"
           transform="matrix(.999 -.039 .039 .999 -23.69 35.655)"
           width="17.374"
           height="4.337" />
      </g>
      <g
         id="ag4"
         data-1365="    opacity: 0; "
         data-1385="    opacity: 1; "
         style="opacity: 1;"
         class="skrollable skrollable-after"
         fill="#44C650">
        <rect
           id="a10"
           x="906.79"
           y="684.566"
           transform="matrix(.999 -.039 .039 .999 -26.087 36.576)"
           width="34.771"
           height="4.336" />
        <rect
           id="a11"
           x="907.119"
           y="693.264"
           transform="matrix(.999 -.039 .039 .999 -26.346 36.481)"
           width="34.854"
           height="4.336" />
        <rect
           id="a18"
           x="923.892"
           y="675.648"
           transform="matrix(.999 -.039 .039 .999 -25.729 36.891)"
           width="17.376"
           height="4.338" />
      </g>
      <g
         id="ag5"
         data-1375="    opacity: 0; "
         data-1395="    opacity: 1; "
         style="opacity: 1;"
         class="skrollable skrollable-after"
         fill="#44C650">
        <rect
           id="a12"
           x="818.776"
           y="653.031"
           transform="matrix(.999 -.039 .039 .999 -24.907 33.269)"
           width="43.405"
           height="4.336" />
        <rect
           id="a13"
           x="801.327"
           y="654.366"
           transform="matrix(.999 -.039 .039 .999 -24.808 31.675)"
           width="8.679"
           height="4.335" />
        <rect
           id="a14"
           x="816.41"
           y="592.462"
           transform="matrix(.999 -.039 .039 .999 -22.547 33.13)"
           width="43.406"
           height="4.335" />
        <rect
           id="a15"
           x="799.016"
           y="593.846"
           transform="matrix(.999 -.039 .039 .999 -22.411 31.459)"
           width="8.676"
           height="4.339" />
        <rect
           id="a16"
           x="799.722"
           y="611.031"
           transform="matrix(.999 -.039 .039 .999 -23.207 31.688)"
           width="8.675"
           height="4.342" />
        <polygon
           id="a17"
           points="868.953,625.743 834.108,614.202 817.146,614.862 816.979,610.524 834.725,609.833 870.318,621.619" />
      </g>
    </g>
    <g
       id="appunti2">
      <rect
         x="1187.49"
         y="364.045"
         transform="matrix(.955 -.297 .297 .955 -79.371 391.04)"
         width="118.512"
         height="185.175"
         id="rect129"
         fill="#363532" />
      <circle
         cx="1280.236"
         cy="364.723"
         r="14.821"
         id="circle131"
         fill="#363532" />
      <circle
         cx="1326.47"
         cy="513.312"
         r="14.821"
         id="circle133"
         fill="#363532" />
      <rect
         x="1303.064"
         y="358.957"
         transform="matrix(-.955 .297 -.297 -.955 2691.532 464.234)"
         width="14.818"
         height="155.562"
         id="rect135"
         fill="#363532" />
      <circle
         cx="1215.461"
         cy="555.613"
         r="7.411"
         id="circle137"
         fill="#363532" />
      <circle
         cx="1164.824"
         cy="392.873"
         r="7.41"
         id="circle139"
         fill="#363532" />
      <rect
         x="1182.564"
         y="388.3"
         transform="matrix(.955 -.297 .297 .955 -86.832 375.916)"
         width="20.374"
         height="170.397"
         id="rect141"
         fill="#363532" />
      <rect
         x="1186.94"
         y="362.259"
         transform="matrix(.955 -.297 .297 .955 -78.865 390.796)"
         width="118.512"
         height="185.174"
         id="rect143"
         fill="#fff" />
      <circle
         cx="1279.686"
         cy="362.955"
         r="14.821"
         id="circle145"
         fill="#fff" />
      <circle
         cx="1325.919"
         cy="511.542"
         r="14.82"
         id="circle147"
         fill="#fff" />
      <rect
         x="1302.378"
         y="357.234"
         transform="matrix(-.955 .297 -.297 -.955 2689.683 461.144)"
         width="14.818"
         height="155.592"
         id="rect149"
         fill="#fff" />
      <circle
         cx="1215.461"
         cy="555.613"
         r="5.558"
         id="circle151"
         fill="#fff" />
      <circle
         cx="1164.273"
         cy="391.104"
         r="7.41"
         id="circle153"
         fill="#fff" />
      <rect
         x="1184.146"
         y="386.181"
         transform="matrix(.955 -.297 .297 .955 -86.431 375.902)"
         width="18.515"
         height="172.212"
         id="rect155"
         fill="#fff" />
      <path
         d="M1274.73 347.035l-113.209 35.226c-3.907 1.215-6.1 5.368-4.875 9.276l50.639 162.74c1.215 3.896 5.369 6.089 9.275 4.874l113.211-35.229c7.812-2.432 12.181-10.736 9.738-18.555l-46.229-148.588c-2.426-7.812-10.732-12.177-18.55-9.744z"
         id="path157"
         fill="#434A54" />
      <rect
         x="1196.775"
         y="372.764"
         transform="matrix(.955 -.297 .297 .955 -85.401 377.367)"
         width="7.412"
         height="194.525"
         id="rect159"
         fill="#A0D468" />
      <rect
         x="1208.341"
         y="419.327"
         transform="matrix(-.954 .299 -.299 -.954 2551.028 451.794)"
         width="65.176"
         height="3.706"
         id="rect161"
         fill="#E6E9ED" />
      <rect
         x="1212.71"
         y="433.815"
         transform="matrix(-.954 .299 -.299 -.954 2563.903 478.787)"
         width="65.177"
         height="3.708"
         id="rect163"
         fill="#E6E9ED" />
      <rect
         x="1217.074"
         y="448.364"
         transform="matrix(-.954 .299 -.299 -.954 2576.787 505.909)"
         width="65.18"
         height="3.705"
         id="rect165"
         fill="#E6E9ED" />
      <rect
         x="1221.445"
         y="462.88"
         transform="matrix(-.954 .299 -.299 -.954 2589.668 532.989)"
         width="65.177"
         height="3.705"
         id="rect167"
         fill="#E6E9ED" />
    </g>
  </g>
  <g
     id="tblock1"
     data-870="    opacity: 0;    transform[swing]: translate(-30px, 0); "
     data-890="    opacity: 1;    transform[swing]: translate(0, 0); "
     transform="translate(0, 0)"
     style="opacity: 1; -webkit-transform: translate(0px, 0px); transform: translate(0px, 0px);"
     class="skrollable skrollable-after">
    <path
       fill="#3498DB"
       d="M9.253 126.877h257.071v132.785h-257.071v-132.785z"
       id="path198" />
    <path
       fill="#3498DB"
       d="M312.5 194.5l-48 13v-24l48 11z"
       id="path200" />
    <text
       transform="translate(17.295 248.246)"
       fill="#ECF0F1"
       font-weight="300"
       font-size="18"
       id="text202">Web applications</text>
    <text
       transform="translate(16.681 200.612)"
       fill="#ECF0F1"
       font-weight="300"
       font-size="18"
       id="text204">OO JavaScript</text>
    <g
       fill="#ECF0F1"
       font-weight="300"
       font-size="18"
       id="g206">
      <text
         transform="translate(17.091 176.795)"
         id="text208">UX and Design thinking</text>
      <text
         transform="translate(17.5 152.978)"
         id="text210">Front-End development</text>
    </g>
    <text
       transform="translate(16.886 224.429)"
       fill="#ECF0F1"
       font-weight="300"
       font-size="18"
       id="text212">E-learning platforms</text>
  </g>
  <g
     id="tblock2"
     data-1130="    opacity: 0;    transform[swing]: translate(-30px, 0); "
     data-1150="    opacity: 1;    transform[swing]: translate(0, 0); "
     transform="translate(0, 0)"
     style="opacity: 1; -webkit-transform: translate(0px, 0px); transform: translate(0px, 0px);"
     class="skrollable skrollable-after">
    <path
       fill="#3498DB"
       d="M735.113 95.586h257.067v132.785h-257.067v-132.785z"
       id="path215" />
    <path
       fill="#3498DB"
       d="M864.648 261.001l-13-48h24l-11 48z"
       id="path217" />
    <text
       transform="translate(745.885 120.963)"
       fill="#ECF0F1"
       font-weight="300"
       font-size="18"
       id="text219">Mobile Applications</text>
    <text
       transform="translate(745.885 190.234)"
       fill="#ECF0F1"
       font-weight="300"
       font-size="18"
       id="text221">Responsive Web Design</text>
    <text
       transform="translate(745.885 144.054)"
       fill="#ECF0F1"
       font-weight="300"
       font-size="18"
       id="text223">CMS and Frameworks</text>
    <text
       transform="translate(745.885 213.325)"
       fill="#ECF0F1"
       font-weight="300"
       font-size="18"
       id="text225">Image editing skills</text>
    <text
       transform="translate(745.885 167.144)"
       fill="#ECF0F1"
       font-weight="300"
       font-size="18"
       id="text227">E-Commerce Development</text>
  </g>
  <g
     id="tblock3"
     data-1370="    opacity: 0;    transform[swing]: translate(-20px, 0); "
     data-1390="    opacity: 1;    transform[swing]: translate(0, 0); "
     transform="translate(0, 0)"
     style="opacity: 1; -webkit-transform: translate(0px, 0px); transform: translate(0px, 0px);"
     class="skrollable skrollable-after">
    <path
       fill="#3498DB"
       d="M369.194 535.938h314.306v132.785h-314.306v-132.785z"
       id="path230" />
    <path
       fill="#3498DB"
       d="M500.959 493.594l13 48h-24l11-48z"
       id="path232" />
    <text
       transform="translate(385.441 565.219)"
       fill="#ECF0F1"
       font-weight="300"
       font-size="18"
       id="text234">Project Management &amp; Strategy</text>
    <text
       transform="translate(385.441 586.785)"
       fill="#ECF0F1"
       font-weight="300"
       font-size="18"
       id="text236">Data Models</text>
    <g
       fill="#ECF0F1"
       font-weight="300"
       font-size="18"
       id="g238">
      <text
         transform="translate(385.441 608.352)"
         id="text240">Social Media Platforms</text>
      <text
         transform="translate(385.441 629.919)"
         id="text242">Estimating / Strategy / Planning</text>
      <text
         transform="translate(385.441 651.485)"
         id="text244">Client relationship</text>
    </g>
  </g>
  <text
     id="title"
     transform="translate(0, 60)"
     fill="#F5F7FA"
     font-weight="100"
     font-size="36"
     data-770="    opacity: 0;    transform[swing]: translate(0px, 50px); "
     data-800="    opacity: 1;    transform[swing]: translate(0px, 60px); "
     style="opacity: 1; -webkit-transform: translate(0px, 60px); transform: translate(0px, 60px);"
     class="skrollable skrollable-after">Knowledge, skills and abilities:</text>
</svg>
