<svg class="compose-button" width="45px" height="32px" viewBox="0 0 45 32" version="1.1" xmlns="http://www.w3.org/2000/svg" xmlns:xlink="http://www.w3.org/1999/xlink"><g transform="translate(-1056.000000, -11.000000)"><path d="M1056,13.0017433 C1056,11.896211 1056.89889,11 1057.99166,11 L1099.00834,11 C1100.1083,11 1101,11.8892617 1101,13.0017433 L1101,40.9982567 C1101,42.103789 1100.10111,43 1099.00834,43 L1057.99166,43 C1056.8917,43 1056,42.1107383 1056,40.9982567 L1056,13.0017433 Z M1069.60453,31.5129333 L1069.60307,31.5129333 L1069.6016,31.5144 L1068,37.9838667 L1074.46947,36.3822667 L1074.47093,36.3822667 L1074.47093,36.3808 L1085.1292,25.7225333 L1080.26133,20.8561333 L1069.60453,31.5129333 Z M1085.11747,16 L1081.91427,19.2032 L1086.78213,24.0710667 L1089.98533,20.8664 L1085.11747,16 Z M1081.0768,24.1708 L1072.95,32.2976 L1072.14773,31.4953333 L1080.27453,23.37 L1081.0768,24.1708 Z" id="Compose-button"></path></g></svg>